<?xml version="1.0"?>
<svg width="250mm" height="200mm" viewBox="0 0   4100    2680"
     xmlns="http://www.w3.org/2000/svg"
     xmlns:xlink="http://www.w3.org/1999/xlink"
     xmlns:ev="http://www.w3.org/2001/xml-events">
<g font-family="Verdana" font-size="8" >
  <line x1="   300" y1="  2430" x2="   300" y2="  2510" style = "stroke:silver  ;"/>
  <line x1="   300" y1="  2430" x2="   300" y2="  2590" style = "stroke:silver  ;"/>
  <line x1="   300" y1="  2430" x2="   300" y2="  2670" style = "stroke:silver  ;"/>
  <line x1="   300" y1="  2510" x2="   300" y2="  2590" style = "stroke:silver  ;"/>
  <line x1="   300" y1="  2510" x2="   300" y2="  2670" style = "stroke:silver  ;"/>
  <line x1="   300" y1="  2590" x2="   300" y2="  2670" style = "stroke:silver  ;"/>
  <line x1="  3100" y1="  1110" x2="  1800" y2="    30" style = "stroke:silver  ;"/>
  <line x1="  3100" y1="  1150" x2="  2100" y2="   110" style = "stroke:silver  ;"/>
  <line x1="  3100" y1="  1190" x2="  2100" y2="   350" style = "stroke:silver  ;"/>
  <line x1="  3100" y1="  1230" x2="  2100" y2="   590" style = "stroke:silver  ;"/>
  <line x1="  3100" y1="  1270" x2="  2100" y2="   150" style = "stroke:silver  ;"/>
  <line x1="  3100" y1="  1310" x2="  2100" y2="   190" style = "stroke:silver  ;"/>
  <line x1="  3100" y1="  1350" x2="  2100" y2="   230" style = "stroke:silver  ;"/>
  <line x1="  3100" y1="  1390" x2="  2100" y2="   270" style = "stroke:silver  ;"/>
  <line x1="  3100" y1="  1430" x2="  2100" y2="   390" style = "stroke:silver  ;"/>
  <line x1="  3100" y1="  1470" x2="  2100" y2="   430" style = "stroke:silver  ;"/>
  <line x1="  3100" y1="  1510" x2="  2100" y2="   470" style = "stroke:silver  ;"/>
  <line x1="  3100" y1="  1550" x2="  2100" y2="   510" style = "stroke:silver  ;"/>
  <line x1="  3100" y1="  1590" x2="  2100" y2="   630" style = "stroke:silver  ;"/>
  <line x1="  3100" y1="  1630" x2="  2100" y2="   670" style = "stroke:silver  ;"/>
  <line x1="  3100" y1="  1670" x2="  2100" y2="   710" style = "stroke:silver  ;"/>
  <line x1="  3100" y1="  1710" x2="  2100" y2="   750" style = "stroke:silver  ;"/>
  <line x1="  3100" y1="  1750" x2="   800" y2="    30" style = "stroke:silver  ;"/>
  <line x1="  3100" y1="  1790" x2="   900" y2="   110" style = "stroke:silver  ;"/>
  <line x1="  3100" y1="  1830" x2="   900" y2="   350" style = "stroke:silver  ;"/>
  <line x1="  3100" y1="  1870" x2="   900" y2="   590" style = "stroke:silver  ;"/>
  <line x1="  2400" y1="  2030" x2="   550" y2="    30" style = "stroke:silver  ;"/>
  <line x1="  2400" y1="  2070" x2="   600" y2="   110" style = "stroke:silver  ;"/>
  <line x1="  2400" y1="  2110" x2="   600" y2="   350" style = "stroke:silver  ;"/>
  <line x1="  2400" y1="  2150" x2="   600" y2="   590" style = "stroke:silver  ;"/>
  <line x1="   900" y1="  1990" x2="  2050" y2="  2310" style = "stroke:silver  ;"/>
  <rect x="  1950" y="    20" width="   200" height="    20" style = "fill:chartreuse; stroke: Black;"/>     1
  <text x="  1952" y="    33">BASEMENT</text>
  <rect x="   800" y="   820" width="   200" height="    20" style = "fill:orange; stroke: Black;"/>    17
  <text x="   802" y="   833">SHWSYS1 WATER HEATER</text>
  <rect x="   200" y="  2420" width="   200" height="    20" style = "fill:snow; stroke: Black;"/>    18
  <text x="   202" y="  2433">OutdoorAir:NodeList</text>
  <rect x="   200" y="  2500" width="   200" height="    20" style = "fill:snow; stroke: Black;"/>    19
  <text x="   202" y="  2513">OutdoorAir:NodeList</text>
  <rect x="   200" y="  2580" width="   200" height="    20" style = "fill:snow; stroke: Black;"/>    20
  <text x="   202" y="  2593">OutdoorAir:NodeList</text>
  <rect x="   200" y="  2660" width="   200" height="    20" style = "fill:snow; stroke: Black;"/>    21
  <text x="   202" y="  2673">OutdoorAir:NodeList</text>
  <rect x="   800" y="   860" width="   200" height="    20" style = "fill:wheat; stroke: Black;"/>    25
  <text x="   802" y="   873">SHWSYS1 SUPPLY EQUIPMENT BYPASS PIPE</text>
  <rect x="  1400" y="   860" width="   200" height="    20" style = "fill:wheat; stroke: Black;"/>    26
  <text x="  1402" y="   873">SHWSYS1 SUPPLY OUTLET PIPE</text>
  <rect x="  1700" y="   860" width="   200" height="    20" style = "fill:wheat; stroke: Black;"/>    27
  <text x="  1702" y="   873">SHWSYS1 DEMAND INLET PIPE</text>
  <rect x="  2300" y="   980" width="   200" height="    20" style = "fill:wheat; stroke: Black;"/>    28
  <text x="  2302" y="   993">SHWSYS1 DEMAND BYPASS PIPE</text>
  <rect x="  2900" y="   980" width="   200" height="    20" style = "fill:wheat; stroke: Black;"/>    29
  <text x="  2902" y="   993">SHWSYS1 DEMAND OUTLET PIPE</text>
  <rect x="  1000" y="  1100" width="   200" height="    20" style = "fill:wheat; stroke: Black;"/>    30
  <text  x="  1002" y="  1108">HEATSYS1 SUPPLY EQUIPMENT BYPASS
  <tspan x="  1002" y="  1116">PIPE</tspan></text>
  <rect x="  1800" y="  1100" width="   200" height="    20" style = "fill:wheat; stroke: Black;"/>    31
  <text x="  1802" y="  1113">HEATSYS1 SUPPLY OUTLET PIPE</text>
  <rect x="  2200" y="  1100" width="   200" height="    20" style = "fill:wheat; stroke: Black;"/>    32
  <text x="  2202" y="  1113">HEATSYS1 DEMAND INLET PIPE</text>
  <rect x="  3000" y="  1900" width="   200" height="    20" style = "fill:wheat; stroke: Black;"/>    33
  <text x="  3002" y="  1913">HEATSYS1 DEMAND BYPASS PIPE</text>
  <rect x="  3800" y="  1900" width="   200" height="    20" style = "fill:wheat; stroke: Black;"/>    34
  <text x="  3802" y="  1913">HEATSYS1 DEMAND OUTLET PIPE</text>
  <rect x="   800" y="  2020" width="   200" height="    20" style = "fill:wheat; stroke: Black;"/>    35
  <text  x="   802" y="  2028">COOLSYS1 SUPPLY EQUIPMENT BYPASS
  <tspan x="   802" y="  2036">PIPE</tspan></text>
  <rect x="  1400" y="  2020" width="   200" height="    20" style = "fill:wheat; stroke: Black;"/>    36
  <text x="  1402" y="  2033">COOLSYS1 SUPPLY OUTLET PIPE</text>
  <rect x="  1700" y="  2020" width="   200" height="    20" style = "fill:wheat; stroke: Black;"/>    37
  <text x="  1702" y="  2033">COOLSYS1 DEMAND INLET PIPE</text>
  <rect x="  2300" y="  2180" width="   200" height="    20" style = "fill:wheat; stroke: Black;"/>    38
  <text x="  2302" y="  2193">COOLSYS1 DEMAND BYPASS PIPE</text>
  <rect x="  2900" y="  2180" width="   200" height="    20" style = "fill:wheat; stroke: Black;"/>    39
  <text x="  2902" y="  2193">COOLSYS1 DEMAND OUTLET PIPE</text>
  <rect x="   700" y="  2300" width="   200" height="    20" style = "fill:wheat; stroke: Black;"/>    40
  <text  x="   702" y="  2308">TOWERWATERSYS SUPPLY EQUIPMENT
  <tspan x="   702" y="  2316">BYPASS PIPE</tspan></text>
  <rect x="  1200" y="  2300" width="   200" height="    20" style = "fill:wheat; stroke: Black;"/>    41
  <text x="  1202" y="  2313">TOWERWATERSYS SUPPLY OUTLET PIPE</text>
  <rect x="  1450" y="  2300" width="   200" height="    20" style = "fill:wheat; stroke: Black;"/>    42
  <text x="  1452" y="  2313">TOWERWATERSYS DEMAND INLET PIPE</text>
  <rect x="  1950" y="  2340" width="   200" height="    20" style = "fill:wheat; stroke: Black;"/>    43
  <text x="  1952" y="  2353">TOWERWATERSYS DEMAND BYPASS PIPE</text>
  <rect x="  2450" y="  2340" width="   200" height="    20" style = "fill:wheat; stroke: Black;"/>    44
  <text x="  2452" y="  2353">TOWERWATERSYS DEMAND OUTLET PIPE</text>
  <rect x="  2000" y="   860" width="   200" height="    20" style = "fill:wheat; stroke: Black;"/>    45
  <text x="  2002" y="   873">SHWSYS1 DEMAND SPLITTER</text>
  <rect x="  2600" y="   980" width="   200" height="    20" style = "fill:wheat; stroke: Black;"/>    46
  <text x="  2602" y="   993">SHWSYS1 DEMAND MIXER</text>
  <rect x="   500" y="   820" width="   200" height="    20" style = "fill:wheat; stroke: Black;"/>    47
  <text x="   502" y="   833">SHWSYS1 SUPPLY SPLITTER</text>
  <rect x="  1100" y="   860" width="   200" height="    20" style = "fill:wheat; stroke: Black;"/>    48
  <text x="  1102" y="   873">SHWSYS1 SUPPLY MIXER</text>
  <rect x="  2600" y="  1100" width="   200" height="    20" style = "fill:wheat; stroke: Black;"/>    49
  <text x="  2602" y="  1113">HEATSYS1 DEMAND SPLITTER</text>
  <rect x="  3400" y="  1900" width="   200" height="    20" style = "fill:wheat; stroke: Black;"/>    50
  <text x="  3402" y="  1913">HEATSYS1 DEMAND MIXER</text>
  <rect x="   600" y="  1060" width="   200" height="    20" style = "fill:wheat; stroke: Black;"/>    51
  <text x="   602" y="  1073">HEATSYS1 SUPPLY SPLITTER</text>
  <rect x="  1400" y="  1100" width="   200" height="    20" style = "fill:wheat; stroke: Black;"/>    52
  <text x="  1402" y="  1113">HEATSYS1 SUPPLY MIXER</text>
  <rect x="  2000" y="  2020" width="   200" height="    20" style = "fill:wheat; stroke: Black;"/>    53
  <text x="  2002" y="  2033">COOLSYS1 DEMAND SPLITTER</text>
  <rect x="  2600" y="  2180" width="   200" height="    20" style = "fill:wheat; stroke: Black;"/>    54
  <text x="  2602" y="  2193">COOLSYS1 DEMAND MIXER</text>
  <rect x="   500" y="  1980" width="   200" height="    20" style = "fill:wheat; stroke: Black;"/>    55
  <text x="   502" y="  1993">COOLSYS1 SUPPLY SPLITTER</text>
  <rect x="  1100" y="  2020" width="   200" height="    20" style = "fill:wheat; stroke: Black;"/>    56
  <text x="  1102" y="  2033">COOLSYS1 SUPPLY MIXER</text>
  <rect x="  1700" y="  2300" width="   200" height="    20" style = "fill:wheat; stroke: Black;"/>    57
  <text x="  1702" y="  2313">TOWERWATERSYS DEMAND SPLITTER</text>
  <rect x="  2200" y="  2340" width="   200" height="    20" style = "fill:wheat; stroke: Black;"/>    58
  <text x="  2202" y="  2353">TOWERWATERSYS DEMAND MIXER</text>
  <rect x="   450" y="  2260" width="   200" height="    20" style = "fill:wheat; stroke: Black;"/>    59
  <text x="   452" y="  2273">TOWERWATERSYS SUPPLY SPLITTER</text>
  <rect x="   950" y="  2300" width="   200" height="    20" style = "fill:wheat; stroke: Black;"/>    60
  <text x="   952" y="  2313">TOWERWATERSYS SUPPLY MIXER</text>
  <rect x="  2300" y="   860" width="   200" height="    20" style = "fill:wheat; stroke: Black;"/>    61
  <text x="  2302" y="   873">CORE_BOTTOM WATER EQUIPMENT</text>
  <rect x="  2300" y="   900" width="   200" height="    20" style = "fill:wheat; stroke: Black;"/>    62
  <text x="  2302" y="   913">CORE_MID WATER EQUIPMENT</text>
  <rect x="  2300" y="   940" width="   200" height="    20" style = "fill:wheat; stroke: Black;"/>    63
  <text x="  2302" y="   953">CORE_TOP WATER EQUIPMENT</text>
  <rect x="  1200" y="    20" width="   200" height="    20" style = "fill:wheat; stroke: Black;"/>    64
  <text x="  1202" y="    33">VAV_5 SUPPLY AIR SPLITTER</text>
  <rect x="  1400" y="   100" width="   200" height="    20" style = "fill:wheat; stroke: Black;"/>    65
  <text x="  1402" y="   113">VAV_1 SUPPLY AIR SPLITTER</text>
  <rect x="  1400" y="   340" width="   200" height="    20" style = "fill:wheat; stroke: Black;"/>    66
  <text x="  1402" y="   353">VAV_2 SUPPLY AIR SPLITTER</text>
  <rect x="  1400" y="   580" width="   200" height="    20" style = "fill:wheat; stroke: Black;"/>    67
  <text x="  1402" y="   593">VAV_3 SUPPLY AIR SPLITTER</text>
  <rect x="  1450" y="    20" width="   200" height="    20" style = "fill:wheat; stroke: Black;"/>    68
  <text x="  1452" y="    33">BASEMENT VAV BOX COMPONENT</text>
  <rect x="  3000" y="  1100" width="   200" height="    20" style = "fill:salmon; stroke: Black;"/>    69
  <text x="  3002" y="  1113">BASEMENT VAV BOX REHEAT COIL</text>
  <rect x="  1700" y="    20" width="   200" height="    20" style = "fill:salmon; stroke: Black;"/>    70
  <text x="  1702" y="    33">BASEMENT VAV BOX REHEAT COIL</text>
  <rect x="  3000" y="  1140" width="   200" height="    20" style = "fill:salmon; stroke: Black;"/>    71
  <text x="  3002" y="  1153">CORE_BOTTOM VAV BOX REHEAT COIL</text>
  <rect x="  2000" y="   100" width="   200" height="    20" style = "fill:salmon; stroke: Black;"/>    72
  <text x="  2002" y="   113">CORE_BOTTOM VAV BOX REHEAT COIL</text>
  <rect x="  3000" y="  1180" width="   200" height="    20" style = "fill:salmon; stroke: Black;"/>    73
  <text x="  3002" y="  1193">CORE_MID VAV BOX REHEAT COIL</text>
  <rect x="  2000" y="   340" width="   200" height="    20" style = "fill:salmon; stroke: Black;"/>    74
  <text x="  2002" y="   353">CORE_MID VAV BOX REHEAT COIL</text>
  <rect x="  3000" y="  1220" width="   200" height="    20" style = "fill:salmon; stroke: Black;"/>    75
  <text x="  3002" y="  1233">CORE_TOP VAV BOX REHEAT COIL</text>
  <rect x="  2000" y="   580" width="   200" height="    20" style = "fill:salmon; stroke: Black;"/>    76
  <text x="  2002" y="   593">CORE_TOP VAV BOX REHEAT COIL</text>
  <rect x="  3000" y="  1260" width="   200" height="    20" style = "fill:salmon; stroke: Black;"/>    77
  <text  x="  3002" y="  1268">PERIMETER_BOT_ZN_3 VAV BOX REHEAT
  <tspan x="  3002" y="  1276">COIL</tspan></text>
  <rect x="  2000" y="   140" width="   200" height="    20" style = "fill:salmon; stroke: Black;"/>    78
  <text  x="  2002" y="   148">PERIMETER_BOT_ZN_3 VAV BOX REHEAT
  <tspan x="  2002" y="   156">COIL</tspan></text>
  <rect x="  3000" y="  1300" width="   200" height="    20" style = "fill:salmon; stroke: Black;"/>    79
  <text  x="  3002" y="  1308">PERIMETER_BOT_ZN_2 VAV BOX REHEAT
  <tspan x="  3002" y="  1316">COIL</tspan></text>
  <rect x="  2000" y="   180" width="   200" height="    20" style = "fill:salmon; stroke: Black;"/>    80
  <text  x="  2002" y="   188">PERIMETER_BOT_ZN_2 VAV BOX REHEAT
  <tspan x="  2002" y="   196">COIL</tspan></text>
  <rect x="  3000" y="  1340" width="   200" height="    20" style = "fill:salmon; stroke: Black;"/>    81
  <text  x="  3002" y="  1348">PERIMETER_BOT_ZN_1 VAV BOX REHEAT
  <tspan x="  3002" y="  1356">COIL</tspan></text>
  <rect x="  2000" y="   220" width="   200" height="    20" style = "fill:salmon; stroke: Black;"/>    82
  <text  x="  2002" y="   228">PERIMETER_BOT_ZN_1 VAV BOX REHEAT
  <tspan x="  2002" y="   236">COIL</tspan></text>
  <rect x="  3000" y="  1380" width="   200" height="    20" style = "fill:salmon; stroke: Black;"/>    83
  <text  x="  3002" y="  1388">PERIMETER_BOT_ZN_4 VAV BOX REHEAT
  <tspan x="  3002" y="  1396">COIL</tspan></text>
  <rect x="  2000" y="   260" width="   200" height="    20" style = "fill:salmon; stroke: Black;"/>    84
  <text  x="  2002" y="   268">PERIMETER_BOT_ZN_4 VAV BOX REHEAT
  <tspan x="  2002" y="   276">COIL</tspan></text>
  <rect x="  3000" y="  1420" width="   200" height="    20" style = "fill:salmon; stroke: Black;"/>    85
  <text  x="  3002" y="  1428">PERIMETER_MID_ZN_3 VAV BOX REHEAT
  <tspan x="  3002" y="  1436">COIL</tspan></text>
  <rect x="  2000" y="   380" width="   200" height="    20" style = "fill:salmon; stroke: Black;"/>    86
  <text  x="  2002" y="   388">PERIMETER_MID_ZN_3 VAV BOX REHEAT
  <tspan x="  2002" y="   396">COIL</tspan></text>
  <rect x="  3000" y="  1460" width="   200" height="    20" style = "fill:salmon; stroke: Black;"/>    87
  <text  x="  3002" y="  1468">PERIMETER_MID_ZN_2 VAV BOX REHEAT
  <tspan x="  3002" y="  1476">COIL</tspan></text>
  <rect x="  2000" y="   420" width="   200" height="    20" style = "fill:salmon; stroke: Black;"/>    88
  <text  x="  2002" y="   428">PERIMETER_MID_ZN_2 VAV BOX REHEAT
  <tspan x="  2002" y="   436">COIL</tspan></text>
  <rect x="  3000" y="  1500" width="   200" height="    20" style = "fill:salmon; stroke: Black;"/>    89
  <text  x="  3002" y="  1508">PERIMETER_MID_ZN_1 VAV BOX REHEAT
  <tspan x="  3002" y="  1516">COIL</tspan></text>
  <rect x="  2000" y="   460" width="   200" height="    20" style = "fill:salmon; stroke: Black;"/>    90
  <text  x="  2002" y="   468">PERIMETER_MID_ZN_1 VAV BOX REHEAT
  <tspan x="  2002" y="   476">COIL</tspan></text>
  <rect x="  3000" y="  1540" width="   200" height="    20" style = "fill:salmon; stroke: Black;"/>    91
  <text  x="  3002" y="  1548">PERIMETER_MID_ZN_4 VAV BOX REHEAT
  <tspan x="  3002" y="  1556">COIL</tspan></text>
  <rect x="  2000" y="   500" width="   200" height="    20" style = "fill:salmon; stroke: Black;"/>    92
  <text  x="  2002" y="   508">PERIMETER_MID_ZN_4 VAV BOX REHEAT
  <tspan x="  2002" y="   516">COIL</tspan></text>
  <rect x="  3000" y="  1580" width="   200" height="    20" style = "fill:salmon; stroke: Black;"/>    93
  <text  x="  3002" y="  1588">PERIMETER_TOP_ZN_3 VAV BOX REHEAT
  <tspan x="  3002" y="  1596">COIL</tspan></text>
  <rect x="  2000" y="   620" width="   200" height="    20" style = "fill:salmon; stroke: Black;"/>    94
  <text  x="  2002" y="   628">PERIMETER_TOP_ZN_3 VAV BOX REHEAT
  <tspan x="  2002" y="   636">COIL</tspan></text>
  <rect x="  3000" y="  1620" width="   200" height="    20" style = "fill:salmon; stroke: Black;"/>    95
  <text  x="  3002" y="  1628">PERIMETER_TOP_ZN_2 VAV BOX REHEAT
  <tspan x="  3002" y="  1636">COIL</tspan></text>
  <rect x="  2000" y="   660" width="   200" height="    20" style = "fill:salmon; stroke: Black;"/>    96
  <text  x="  2002" y="   668">PERIMETER_TOP_ZN_2 VAV BOX REHEAT
  <tspan x="  2002" y="   676">COIL</tspan></text>
  <rect x="  3000" y="  1660" width="   200" height="    20" style = "fill:salmon; stroke: Black;"/>    97
  <text  x="  3002" y="  1668">PERIMETER_TOP_ZN_1 VAV BOX REHEAT
  <tspan x="  3002" y="  1676">COIL</tspan></text>
  <rect x="  2000" y="   700" width="   200" height="    20" style = "fill:salmon; stroke: Black;"/>    98
  <text  x="  2002" y="   708">PERIMETER_TOP_ZN_1 VAV BOX REHEAT
  <tspan x="  2002" y="   716">COIL</tspan></text>
  <rect x="  3000" y="  1700" width="   200" height="    20" style = "fill:salmon; stroke: Black;"/>    99
  <text  x="  3002" y="  1708">PERIMETER_TOP_ZN_4 VAV BOX REHEAT
  <tspan x="  3002" y="  1716">COIL</tspan></text>
  <rect x="  2000" y="   740" width="   200" height="    20" style = "fill:salmon; stroke: Black;"/>   100
  <text  x="  2002" y="   748">PERIMETER_TOP_ZN_4 VAV BOX REHEAT
  <tspan x="  2002" y="   756">COIL</tspan></text>
  <rect x="  3000" y="  1740" width="   200" height="    20" style = "fill:salmon; stroke: Black;"/>   101
  <text x="  3002" y="  1753">VAV_5_HEATC</text>
  <rect x="   700" y="    20" width="   200" height="    20" style = "fill:salmon; stroke: Black;"/>   102
  <text x="   702" y="    33">VAV_5_HEATC</text>
  <rect x="  3000" y="  1780" width="   200" height="    20" style = "fill:salmon; stroke: Black;"/>   103
  <text x="  3002" y="  1793">VAV_1_HEATC</text>
  <rect x="   800" y="   100" width="   200" height="    20" style = "fill:salmon; stroke: Black;"/>   104
  <text x="   802" y="   113">VAV_1_HEATC</text>
  <rect x="  3000" y="  1820" width="   200" height="    20" style = "fill:salmon; stroke: Black;"/>   105
  <text x="  3002" y="  1833">VAV_2_HEATC</text>
  <rect x="   800" y="   340" width="   200" height="    20" style = "fill:salmon; stroke: Black;"/>   106
  <text x="   802" y="   353">VAV_2_HEATC</text>
  <rect x="  3000" y="  1860" width="   200" height="    20" style = "fill:salmon; stroke: Black;"/>   107
  <text x="  3002" y="  1873">VAV_3_HEATC</text>
  <rect x="   800" y="   580" width="   200" height="    20" style = "fill:salmon; stroke: Black;"/>   108
  <text x="   802" y="   593">VAV_3_HEATC</text>
  <rect x="  2300" y="  2020" width="   200" height="    20" style = "fill:skyblue; stroke: Black;"/>   109
  <text x="  2302" y="  2033">VAV_5_COOLC</text>
  <rect x="   450" y="    20" width="   200" height="    20" style = "fill:skyblue; stroke: Black;"/>   110
  <text x="   452" y="    33">VAV_5_COOLC</text>
  <rect x="  2300" y="  2060" width="   200" height="    20" style = "fill:skyblue; stroke: Black;"/>   111
  <text x="  2302" y="  2073">VAV_1_COOLC</text>
  <rect x="   500" y="   100" width="   200" height="    20" style = "fill:skyblue; stroke: Black;"/>   112
  <text x="   502" y="   113">VAV_1_COOLC</text>
  <rect x="  2300" y="  2100" width="   200" height="    20" style = "fill:skyblue; stroke: Black;"/>   113
  <text x="  2302" y="  2113">VAV_2_COOLC</text>
  <rect x="   500" y="   340" width="   200" height="    20" style = "fill:skyblue; stroke: Black;"/>   114
  <text x="   502" y="   353">VAV_2_COOLC</text>
  <rect x="  2300" y="  2140" width="   200" height="    20" style = "fill:skyblue; stroke: Black;"/>   115
  <text x="  2302" y="  2153">VAV_3_COOLC</text>
  <rect x="   500" y="   580" width="   200" height="    20" style = "fill:skyblue; stroke: Black;"/>   116
  <text x="   502" y="   593">VAV_3_COOLC</text>
  <rect x="  1700" y="   100" width="   200" height="    20" style = "fill:wheat; stroke: Black;"/>   117
  <text x="  1702" y="   113">CORE_BOTTOM VAV BOX COMPONENT</text>
  <rect x="  1700" y="   340" width="   200" height="    20" style = "fill:wheat; stroke: Black;"/>   118
  <text x="  1702" y="   353">CORE_MID VAV BOX COMPONENT</text>
  <rect x="  1700" y="   580" width="   200" height="    20" style = "fill:wheat; stroke: Black;"/>   119
  <text x="  1702" y="   593">CORE_TOP VAV BOX COMPONENT</text>
  <rect x="  1700" y="   140" width="   200" height="    20" style = "fill:wheat; stroke: Black;"/>   120
  <text x="  1702" y="   153">PERIMETER_BOT_ZN_3 VAV BOX COMPONENT</text>
  <rect x="  1700" y="   180" width="   200" height="    20" style = "fill:wheat; stroke: Black;"/>   121
  <text x="  1702" y="   193">PERIMETER_BOT_ZN_2 VAV BOX COMPONENT</text>
  <rect x="  1700" y="   220" width="   200" height="    20" style = "fill:wheat; stroke: Black;"/>   122
  <text x="  1702" y="   233">PERIMETER_BOT_ZN_1 VAV BOX COMPONENT</text>
  <rect x="  1700" y="   260" width="   200" height="    20" style = "fill:wheat; stroke: Black;"/>   123
  <text x="  1702" y="   273">PERIMETER_BOT_ZN_4 VAV BOX COMPONENT</text>
  <rect x="  1700" y="   380" width="   200" height="    20" style = "fill:wheat; stroke: Black;"/>   124
  <text x="  1702" y="   393">PERIMETER_MID_ZN_3 VAV BOX COMPONENT</text>
  <rect x="  1700" y="   420" width="   200" height="    20" style = "fill:wheat; stroke: Black;"/>   125
  <text x="  1702" y="   433">PERIMETER_MID_ZN_2 VAV BOX COMPONENT</text>
  <rect x="  1700" y="   460" width="   200" height="    20" style = "fill:wheat; stroke: Black;"/>   126
  <text x="  1702" y="   473">PERIMETER_MID_ZN_1 VAV BOX COMPONENT</text>
  <rect x="  1700" y="   500" width="   200" height="    20" style = "fill:wheat; stroke: Black;"/>   127
  <text x="  1702" y="   513">PERIMETER_MID_ZN_4 VAV BOX COMPONENT</text>
  <rect x="  1700" y="   620" width="   200" height="    20" style = "fill:wheat; stroke: Black;"/>   128
  <text x="  1702" y="   633">PERIMETER_TOP_ZN_3 VAV BOX COMPONENT</text>
  <rect x="  1700" y="   660" width="   200" height="    20" style = "fill:wheat; stroke: Black;"/>   129
  <text x="  1702" y="   673">PERIMETER_TOP_ZN_2 VAV BOX COMPONENT</text>
  <rect x="  1700" y="   700" width="   200" height="    20" style = "fill:wheat; stroke: Black;"/>   130
  <text x="  1702" y="   713">PERIMETER_TOP_ZN_1 VAV BOX COMPONENT</text>
  <rect x="  1700" y="   740" width="   200" height="    20" style = "fill:wheat; stroke: Black;"/>   131
  <text x="  1702" y="   753">PERIMETER_TOP_ZN_4 VAV BOX COMPONENT</text>
  <rect x="  2200" y="    20" width="   200" height="    20" style = "fill:wheat; stroke: Black;"/>   140
  <text x="  2202" y="    33">VAV_5 RETURN AIR MIXER</text>
  <rect x="  2600" y="   260" width="   200" height="    20" style = "fill:wheat; stroke: Black;"/>   141
  <text x="  2602" y="   273">VAV_1 RETURN AIR MIXER</text>
  <rect x="  2600" y="   500" width="   200" height="    20" style = "fill:wheat; stroke: Black;"/>   142
  <text x="  2602" y="   513">VAV_2 RETURN AIR MIXER</text>
  <rect x="  2600" y="   740" width="   200" height="    20" style = "fill:wheat; stroke: Black;"/>   143
  <text x="  2602" y="   753">VAV_3 RETURN AIR MIXER</text>
  <rect x="   200" y="    20" width="   200" height="    20" style = "fill:lawngreen; stroke: Black;"/>   144
  <text x="   202" y="    33">VAV_5_OAMIXING BOX</text>
  <rect x="   200" y="   100" width="   200" height="    20" style = "fill:lawngreen; stroke: Black;"/>   145
  <text x="   202" y="   113">VAV_1_OAMIXING BOX</text>
  <rect x="   200" y="   340" width="   200" height="    20" style = "fill:lawngreen; stroke: Black;"/>   146
  <text x="   202" y="   353">VAV_2_OAMIXING BOX</text>
  <rect x="   200" y="   580" width="   200" height="    20" style = "fill:lawngreen; stroke: Black;"/>   147
  <text x="   202" y="   593">VAV_3_OAMIXING BOX</text>
  <rect x="   950" y="    20" width="   200" height="    20" style = "fill:silver; stroke: Black;"/>   148
  <text x="   952" y="    33">VAV_5_FAN</text>
  <rect x="  1100" y="   100" width="   200" height="    20" style = "fill:silver; stroke: Black;"/>   149
  <text x="  1102" y="   113">VAV_1_FAN</text>
  <rect x="  1100" y="   340" width="   200" height="    20" style = "fill:silver; stroke: Black;"/>   150
  <text x="  1102" y="   353">VAV_2_FAN</text>
  <rect x="  1100" y="   580" width="   200" height="    20" style = "fill:silver; stroke: Black;"/>   151
  <text x="  1102" y="   593">VAV_3_FAN</text>
  <rect x="  1000" y="  1060" width="   200" height="    20" style = "fill:indianred; stroke: Black;"/>   156
  <text x="  1002" y="  1073">HEATSYS1 BOILER</text>
  <rect x="   800" y="  1980" width="   200" height="    20" style = "fill:powderblue; stroke: Black;"/>   157
  <text x="   802" y="  1993">COOLSYS1 CHILLER</text>
  <rect x="  1950" y="  2300" width="   200" height="    20" style = "fill:powderblue; stroke: Black;"/>   158
  <text x="  1952" y="  2313">COOLSYS1 CHILLER</text>
  <rect x="   700" y="  2260" width="   200" height="    20" style = "fill:pink; stroke: Black;"/>   159
  <text x="   702" y="  2273">TOWERWATERSYS COOLTOWER</text>
  <rect x="   200" y="   820" width="   200" height="    20" style = "fill:springgreen; stroke: Black;"/>   160
  <text x="   202" y="   833">SHWSYS1 PUMP</text>
  <rect x="   200" y="  1060" width="   200" height="    20" style = "fill:springgreen; stroke: Black;"/>   161
  <text x="   202" y="  1073">HEATSYS1 PUMP</text>
  <rect x="   200" y="  1980" width="   200" height="    20" style = "fill:springgreen; stroke: Black;"/>   162
  <text x="   202" y="  1993">COOLSYS1 PUMP</text>
  <rect x="   200" y="  2260" width="   200" height="    20" style = "fill:springgreen; stroke: Black;"/>   163
  <text x="   202" y="  2273">TOWERWATERSYS PUMP</text>
  <rect x="  2300" y="   100" width="   200" height="    20" style = "fill:chartreuse; stroke: Black;"/>   164
  <text x="  2302" y="   113">CORE_BOTTOM</text>
  <rect x="  2300" y="   340" width="   200" height="    20" style = "fill:chartreuse; stroke: Black;"/>   165
  <text x="  2302" y="   353">CORE_MID</text>
  <rect x="  2300" y="   580" width="   200" height="    20" style = "fill:chartreuse; stroke: Black;"/>   166
  <text x="  2302" y="   593">CORE_TOP</text>
  <rect x="  2300" y="   140" width="   200" height="    20" style = "fill:chartreuse; stroke: Black;"/>   167
  <text x="  2302" y="   153">PERIMETER_BOT_ZN_3</text>
  <rect x="  2300" y="   180" width="   200" height="    20" style = "fill:chartreuse; stroke: Black;"/>   168
  <text x="  2302" y="   193">PERIMETER_BOT_ZN_2</text>
  <rect x="  2300" y="   220" width="   200" height="    20" style = "fill:chartreuse; stroke: Black;"/>   169
  <text x="  2302" y="   233">PERIMETER_BOT_ZN_1</text>
  <rect x="  2300" y="   260" width="   200" height="    20" style = "fill:chartreuse; stroke: Black;"/>   170
  <text x="  2302" y="   273">PERIMETER_BOT_ZN_4</text>
  <rect x="  2300" y="   380" width="   200" height="    20" style = "fill:chartreuse; stroke: Black;"/>   171
  <text x="  2302" y="   393">PERIMETER_MID_ZN_3</text>
  <rect x="  2300" y="   420" width="   200" height="    20" style = "fill:chartreuse; stroke: Black;"/>   172
  <text x="  2302" y="   433">PERIMETER_MID_ZN_2</text>
  <rect x="  2300" y="   460" width="   200" height="    20" style = "fill:chartreuse; stroke: Black;"/>   173
  <text x="  2302" y="   473">PERIMETER_MID_ZN_1</text>
  <rect x="  2300" y="   500" width="   200" height="    20" style = "fill:chartreuse; stroke: Black;"/>   174
  <text x="  2302" y="   513">PERIMETER_MID_ZN_4</text>
  <rect x="  2300" y="   620" width="   200" height="    20" style = "fill:chartreuse; stroke: Black;"/>   175
  <text x="  2302" y="   633">PERIMETER_TOP_ZN_3</text>
  <rect x="  2300" y="   660" width="   200" height="    20" style = "fill:chartreuse; stroke: Black;"/>   176
  <text x="  2302" y="   673">PERIMETER_TOP_ZN_2</text>
  <rect x="  2300" y="   700" width="   200" height="    20" style = "fill:chartreuse; stroke: Black;"/>   177
  <text x="  2302" y="   713">PERIMETER_TOP_ZN_1</text>
  <rect x="  2300" y="   740" width="   200" height="    20" style = "fill:chartreuse; stroke: Black;"/>   178
  <text x="  2302" y="   753">PERIMETER_TOP_ZN_4</text>
  <line x1="  1000" y1="   830" x2="  1100" y2="   870" style = "stroke: Black;"/>
  <line x1="  1000" y1="   870" x2="  1100" y2="   870" style = "stroke: Black;"/>
  <line x1="  1600" y1="   870" x2="  1700" y2="   870" style = "stroke: Black;"/>
  <line x1="  1900" y1="   870" x2="  2000" y2="   870" style = "stroke: Black;"/>
  <line x1="  2500" y1="   990" x2="  2600" y2="   990" style = "stroke: Black;"/>
  <line x1="  1200" y1="  1110" x2="  1400" y2="  1110" style = "stroke: Black;"/>
  <line x1="  2000" y1="  1110" x2="  2200" y2="  1110" style = "stroke: Black;"/>
  <line x1="  2400" y1="  1110" x2="  2600" y2="  1110" style = "stroke: Black;"/>
  <line x1="  3200" y1="  1910" x2="  3400" y2="  1910" style = "stroke: Black;"/>
  <line x1="  1000" y1="  2030" x2="  1100" y2="  2030" style = "stroke: Black;"/>
  <line x1="  1600" y1="  2030" x2="  1700" y2="  2030" style = "stroke: Black;"/>
  <line x1="  1900" y1="  2030" x2="  2000" y2="  2030" style = "stroke: Black;"/>
  <line x1="  2500" y1="  2190" x2="  2600" y2="  2190" style = "stroke: Black;"/>
  <line x1="   900" y1="  2310" x2="   950" y2="  2310" style = "stroke: Black;"/>
  <line x1="  1400" y1="  2310" x2="  1450" y2="  2310" style = "stroke: Black;"/>
  <line x1="  1650" y1="  2310" x2="  1700" y2="  2310" style = "stroke: Black;"/>
  <line x1="  2150" y1="  2350" x2="  2200" y2="  2350" style = "stroke: Black;"/>
  <line x1="  2200" y1="   870" x2="  2300" y2="   870" style = "stroke: Black;"/>
  <line x1="  2200" y1="   870" x2="  2300" y2="   910" style = "stroke: Black;"/>
  <line x1="  2200" y1="   870" x2="  2300" y2="   950" style = "stroke: Black;"/>
  <line x1="  2200" y1="   870" x2="  2300" y2="   990" style = "stroke: Black;"/>
  <line x1="  2800" y1="   990" x2="  2900" y2="   990" style = "stroke: Black;"/>
  <line x1="   700" y1="   830" x2="   800" y2="   830" style = "stroke: Black;"/>
  <line x1="   700" y1="   830" x2="   800" y2="   870" style = "stroke: Black;"/>
  <line x1="  1300" y1="   870" x2="  1400" y2="   870" style = "stroke: Black;"/>
  <line x1="  2800" y1="  1110" x2="  3000" y2="  1110" style = "stroke: Black;"/>
  <line x1="  2800" y1="  1110" x2="  3000" y2="  1150" style = "stroke: Black;"/>
  <line x1="  2800" y1="  1110" x2="  3000" y2="  1190" style = "stroke: Black;"/>
  <line x1="  2800" y1="  1110" x2="  3000" y2="  1230" style = "stroke: Black;"/>
  <line x1="  2800" y1="  1110" x2="  3000" y2="  1270" style = "stroke: Black;"/>
  <line x1="  2800" y1="  1110" x2="  3000" y2="  1310" style = "stroke: Black;"/>
  <line x1="  2800" y1="  1110" x2="  3000" y2="  1350" style = "stroke: Black;"/>
  <line x1="  2800" y1="  1110" x2="  3000" y2="  1390" style = "stroke: Black;"/>
  <line x1="  2800" y1="  1110" x2="  3000" y2="  1430" style = "stroke: Black;"/>
  <line x1="  2800" y1="  1110" x2="  3000" y2="  1470" style = "stroke: Black;"/>
  <line x1="  2800" y1="  1110" x2="  3000" y2="  1510" style = "stroke: Black;"/>
  <line x1="  2800" y1="  1110" x2="  3000" y2="  1550" style = "stroke: Black;"/>
  <line x1="  2800" y1="  1110" x2="  3000" y2="  1590" style = "stroke: Black;"/>
  <line x1="  2800" y1="  1110" x2="  3000" y2="  1630" style = "stroke: Black;"/>
  <line x1="  2800" y1="  1110" x2="  3000" y2="  1670" style = "stroke: Black;"/>
  <line x1="  2800" y1="  1110" x2="  3000" y2="  1710" style = "stroke: Black;"/>
  <line x1="  2800" y1="  1110" x2="  3000" y2="  1750" style = "stroke: Black;"/>
  <line x1="  2800" y1="  1110" x2="  3000" y2="  1790" style = "stroke: Black;"/>
  <line x1="  2800" y1="  1110" x2="  3000" y2="  1830" style = "stroke: Black;"/>
  <line x1="  2800" y1="  1110" x2="  3000" y2="  1870" style = "stroke: Black;"/>
  <line x1="  2800" y1="  1110" x2="  3000" y2="  1910" style = "stroke: Black;"/>
  <line x1="  3600" y1="  1910" x2="  3800" y2="  1910" style = "stroke: Black;"/>
  <line x1="   800" y1="  1070" x2="  1000" y2="  1070" style = "stroke: Black;"/>
  <line x1="   800" y1="  1070" x2="  1000" y2="  1110" style = "stroke: Black;"/>
  <line x1="  1600" y1="  1110" x2="  1800" y2="  1110" style = "stroke: Black;"/>
  <line x1="  2200" y1="  2030" x2="  2300" y2="  2030" style = "stroke: Black;"/>
  <line x1="  2200" y1="  2030" x2="  2300" y2="  2070" style = "stroke: Black;"/>
  <line x1="  2200" y1="  2030" x2="  2300" y2="  2110" style = "stroke: Black;"/>
  <line x1="  2200" y1="  2030" x2="  2300" y2="  2150" style = "stroke: Black;"/>
  <line x1="  2200" y1="  2030" x2="  2300" y2="  2190" style = "stroke: Black;"/>
  <line x1="  2800" y1="  2190" x2="  2900" y2="  2190" style = "stroke: Black;"/>
  <line x1="   700" y1="  1990" x2="   800" y2="  1990" style = "stroke: Black;"/>
  <line x1="   700" y1="  1990" x2="   800" y2="  2030" style = "stroke: Black;"/>
  <line x1="  1300" y1="  2030" x2="  1400" y2="  2030" style = "stroke: Black;"/>
  <line x1="  1900" y1="  2310" x2="  1950" y2="  2310" style = "stroke: Black;"/>
  <line x1="  1900" y1="  2310" x2="  1950" y2="  2350" style = "stroke: Black;"/>
  <line x1="  2400" y1="  2350" x2="  2450" y2="  2350" style = "stroke: Black;"/>
  <line x1="   650" y1="  2270" x2="   700" y2="  2270" style = "stroke: Black;"/>
  <line x1="   650" y1="  2270" x2="   700" y2="  2310" style = "stroke: Black;"/>
  <line x1="  1150" y1="  2310" x2="  1200" y2="  2310" style = "stroke: Black;"/>
  <line x1="  2500" y1="   870" x2="  2600" y2="   990" style = "stroke: Black;"/>
  <line x1="  2500" y1="   910" x2="  2600" y2="   990" style = "stroke: Black;"/>
  <line x1="  2500" y1="   950" x2="  2600" y2="   990" style = "stroke: Black;"/>
  <line x1="  1400" y1="    30" x2="  1450" y2="    30" style = "stroke: Black;"/>
  <line x1="  1600" y1="   110" x2="  1700" y2="   110" style = "stroke: Black;"/>
  <line x1="  1600" y1="   110" x2="  1700" y2="   150" style = "stroke: Black;"/>
  <line x1="  1600" y1="   110" x2="  1700" y2="   190" style = "stroke: Black;"/>
  <line x1="  1600" y1="   110" x2="  1700" y2="   230" style = "stroke: Black;"/>
  <line x1="  1600" y1="   110" x2="  1700" y2="   270" style = "stroke: Black;"/>
  <line x1="  1600" y1="   350" x2="  1700" y2="   350" style = "stroke: Black;"/>
  <line x1="  1600" y1="   350" x2="  1700" y2="   390" style = "stroke: Black;"/>
  <line x1="  1600" y1="   350" x2="  1700" y2="   430" style = "stroke: Black;"/>
  <line x1="  1600" y1="   350" x2="  1700" y2="   470" style = "stroke: Black;"/>
  <line x1="  1600" y1="   350" x2="  1700" y2="   510" style = "stroke: Black;"/>
  <line x1="  1600" y1="   590" x2="  1700" y2="   590" style = "stroke: Black;"/>
  <line x1="  1600" y1="   590" x2="  1700" y2="   630" style = "stroke: Black;"/>
  <line x1="  1600" y1="   590" x2="  1700" y2="   670" style = "stroke: Black;"/>
  <line x1="  1600" y1="   590" x2="  1700" y2="   710" style = "stroke: Black;"/>
  <line x1="  1600" y1="   590" x2="  1700" y2="   750" style = "stroke: Black;"/>
  <line x1="  1650" y1="    30" x2="  1700" y2="    30" style = "stroke: Black;"/>
  <line x1="  3200" y1="  1110" x2="  3400" y2="  1910" style = "stroke: Black;"/>
  <line x1="  1900" y1="    30" x2="  1950" y2="    30" style = "stroke: Black;"/>
  <line x1="  3200" y1="  1150" x2="  3400" y2="  1910" style = "stroke: Black;"/>
  <line x1="  2200" y1="   110" x2="  2300" y2="   110" style = "stroke: Black;"/>
  <line x1="  3200" y1="  1190" x2="  3400" y2="  1910" style = "stroke: Black;"/>
  <line x1="  2200" y1="   350" x2="  2300" y2="   350" style = "stroke: Black;"/>
  <line x1="  3200" y1="  1230" x2="  3400" y2="  1910" style = "stroke: Black;"/>
  <line x1="  2200" y1="   590" x2="  2300" y2="   590" style = "stroke: Black;"/>
  <line x1="  3200" y1="  1270" x2="  3400" y2="  1910" style = "stroke: Black;"/>
  <line x1="  2200" y1="   150" x2="  2300" y2="   150" style = "stroke: Black;"/>
  <line x1="  3200" y1="  1310" x2="  3400" y2="  1910" style = "stroke: Black;"/>
  <line x1="  2200" y1="   190" x2="  2300" y2="   190" style = "stroke: Black;"/>
  <line x1="  3200" y1="  1350" x2="  3400" y2="  1910" style = "stroke: Black;"/>
  <line x1="  2200" y1="   230" x2="  2300" y2="   230" style = "stroke: Black;"/>
  <line x1="  3200" y1="  1390" x2="  3400" y2="  1910" style = "stroke: Black;"/>
  <line x1="  2200" y1="   270" x2="  2300" y2="   270" style = "stroke: Black;"/>
  <line x1="  3200" y1="  1430" x2="  3400" y2="  1910" style = "stroke: Black;"/>
  <line x1="  2200" y1="   390" x2="  2300" y2="   390" style = "stroke: Black;"/>
  <line x1="  3200" y1="  1470" x2="  3400" y2="  1910" style = "stroke: Black;"/>
  <line x1="  2200" y1="   430" x2="  2300" y2="   430" style = "stroke: Black;"/>
  <line x1="  3200" y1="  1510" x2="  3400" y2="  1910" style = "stroke: Black;"/>
  <line x1="  2200" y1="   470" x2="  2300" y2="   470" style = "stroke: Black;"/>
  <line x1="  3200" y1="  1550" x2="  3400" y2="  1910" style = "stroke: Black;"/>
  <line x1="  2200" y1="   510" x2="  2300" y2="   510" style = "stroke: Black;"/>
  <line x1="  3200" y1="  1590" x2="  3400" y2="  1910" style = "stroke: Black;"/>
  <line x1="  2200" y1="   630" x2="  2300" y2="   630" style = "stroke: Black;"/>
  <line x1="  3200" y1="  1630" x2="  3400" y2="  1910" style = "stroke: Black;"/>
  <line x1="  2200" y1="   670" x2="  2300" y2="   670" style = "stroke: Black;"/>
  <line x1="  3200" y1="  1670" x2="  3400" y2="  1910" style = "stroke: Black;"/>
  <line x1="  2200" y1="   710" x2="  2300" y2="   710" style = "stroke: Black;"/>
  <line x1="  3200" y1="  1710" x2="  3400" y2="  1910" style = "stroke: Black;"/>
  <line x1="  2200" y1="   750" x2="  2300" y2="   750" style = "stroke: Black;"/>
  <line x1="  3200" y1="  1750" x2="  3400" y2="  1910" style = "stroke: Black;"/>
  <line x1="   900" y1="    30" x2="   950" y2="    30" style = "stroke: Black;"/>
  <line x1="  3200" y1="  1790" x2="  3400" y2="  1910" style = "stroke: Black;"/>
  <line x1="  1000" y1="   110" x2="  1100" y2="   110" style = "stroke: Black;"/>
  <line x1="  3200" y1="  1830" x2="  3400" y2="  1910" style = "stroke: Black;"/>
  <line x1="  1000" y1="   350" x2="  1100" y2="   350" style = "stroke: Black;"/>
  <line x1="  3200" y1="  1870" x2="  3400" y2="  1910" style = "stroke: Black;"/>
  <line x1="  1000" y1="   590" x2="  1100" y2="   590" style = "stroke: Black;"/>
  <line x1="  2500" y1="  2030" x2="  2600" y2="  2190" style = "stroke: Black;"/>
  <line x1="   650" y1="    30" x2="   700" y2="    30" style = "stroke: Black;"/>
  <line x1="  2500" y1="  2070" x2="  2600" y2="  2190" style = "stroke: Black;"/>
  <line x1="   700" y1="   110" x2="   800" y2="   110" style = "stroke: Black;"/>
  <line x1="  2500" y1="  2110" x2="  2600" y2="  2190" style = "stroke: Black;"/>
  <line x1="   700" y1="   350" x2="   800" y2="   350" style = "stroke: Black;"/>
  <line x1="  2500" y1="  2150" x2="  2600" y2="  2190" style = "stroke: Black;"/>
  <line x1="   700" y1="   590" x2="   800" y2="   590" style = "stroke: Black;"/>
  <line x1="  1900" y1="   110" x2="  2000" y2="   110" style = "stroke: Black;"/>
  <line x1="  1900" y1="   350" x2="  2000" y2="   350" style = "stroke: Black;"/>
  <line x1="  1900" y1="   590" x2="  2000" y2="   590" style = "stroke: Black;"/>
  <line x1="  1900" y1="   150" x2="  2000" y2="   150" style = "stroke: Black;"/>
  <line x1="  1900" y1="   190" x2="  2000" y2="   190" style = "stroke: Black;"/>
  <line x1="  1900" y1="   230" x2="  2000" y2="   230" style = "stroke: Black;"/>
  <line x1="  1900" y1="   270" x2="  2000" y2="   270" style = "stroke: Black;"/>
  <line x1="  1900" y1="   390" x2="  2000" y2="   390" style = "stroke: Black;"/>
  <line x1="  1900" y1="   430" x2="  2000" y2="   430" style = "stroke: Black;"/>
  <line x1="  1900" y1="   470" x2="  2000" y2="   470" style = "stroke: Black;"/>
  <line x1="  1900" y1="   510" x2="  2000" y2="   510" style = "stroke: Black;"/>
  <line x1="  1900" y1="   630" x2="  2000" y2="   630" style = "stroke: Black;"/>
  <line x1="  1900" y1="   670" x2="  2000" y2="   670" style = "stroke: Black;"/>
  <line x1="  1900" y1="   710" x2="  2000" y2="   710" style = "stroke: Black;"/>
  <line x1="  1900" y1="   750" x2="  2000" y2="   750" style = "stroke: Black;"/>
  <line x1="   400" y1="    30" x2="   450" y2="    30" style = "stroke: Black;"/>
  <line x1="   400" y1="   110" x2="   500" y2="   110" style = "stroke: Black;"/>
  <line x1="   400" y1="   350" x2="   500" y2="   350" style = "stroke: Black;"/>
  <line x1="   400" y1="   590" x2="   500" y2="   590" style = "stroke: Black;"/>
  <line x1="  1150" y1="    30" x2="  1200" y2="    30" style = "stroke: Black;"/>
  <line x1="  1300" y1="   110" x2="  1400" y2="   110" style = "stroke: Black;"/>
  <line x1="  1300" y1="   350" x2="  1400" y2="   350" style = "stroke: Black;"/>
  <line x1="  1300" y1="   590" x2="  1400" y2="   590" style = "stroke: Black;"/>
  <line x1="  1200" y1="  1070" x2="  1400" y2="  1110" style = "stroke: Black;"/>
  <line x1="  1000" y1="  1990" x2="  1100" y2="  2030" style = "stroke: Black;"/>
  <line x1="  2150" y1="  2310" x2="  2200" y2="  2350" style = "stroke: Black;"/>
  <line x1="   900" y1="  2270" x2="   950" y2="  2310" style = "stroke: Black;"/>
  <line x1="   400" y1="   830" x2="   500" y2="   830" style = "stroke: Black;"/>
  <line x1="   400" y1="  1070" x2="   600" y2="  1070" style = "stroke: Black;"/>
  <line x1="   400" y1="  1990" x2="   500" y2="  1990" style = "stroke: Black;"/>
  <line x1="   400" y1="  2270" x2="   450" y2="  2270" style = "stroke: Black;"/>
  <line x1="  2150" y1="    30" x2="  2200" y2="    30" style = "stroke: Black;"/>
  <line x1="  2500" y1="   110" x2="  2600" y2="   270" style = "stroke: Black;"/>
  <line x1="  2500" y1="   350" x2="  2600" y2="   510" style = "stroke: Black;"/>
  <line x1="  2500" y1="   590" x2="  2600" y2="   750" style = "stroke: Black;"/>
  <line x1="  2500" y1="   150" x2="  2600" y2="   270" style = "stroke: Black;"/>
  <line x1="  2500" y1="   190" x2="  2600" y2="   270" style = "stroke: Black;"/>
  <line x1="  2500" y1="   230" x2="  2600" y2="   270" style = "stroke: Black;"/>
  <line x1="  2500" y1="   270" x2="  2600" y2="   270" style = "stroke: Black;"/>
  <line x1="  2500" y1="   390" x2="  2600" y2="   510" style = "stroke: Black;"/>
  <line x1="  2500" y1="   430" x2="  2600" y2="   510" style = "stroke: Black;"/>
  <line x1="  2500" y1="   470" x2="  2600" y2="   510" style = "stroke: Black;"/>
  <line x1="  2500" y1="   510" x2="  2600" y2="   510" style = "stroke: Black;"/>
  <line x1="  2500" y1="   630" x2="  2600" y2="   750" style = "stroke: Black;"/>
  <line x1="  2500" y1="   670" x2="  2600" y2="   750" style = "stroke: Black;"/>
  <line x1="  2500" y1="   710" x2="  2600" y2="   750" style = "stroke: Black;"/>
  <line x1="  2500" y1="   750" x2="  2600" y2="   750" style = "stroke: Black;"/>
  <line x1="   200" y1="    30" x2="   175" y2="    30" style = "stroke: Black;"/>
  <line x1="   175" y1="    30" x2="   175" y2="     0" style = "stroke: Black;"/>
  <line x1="   175" y1="     0" x2="  2425" y2="     0" style = "stroke: Black;"/>
  <line x1="  2425" y1="     0" x2="  2425" y2="    30" style = "stroke: Black;"/>
  <line x1="  2425" y1="    30" x2="  2400" y2="    30" style = "stroke: Black;"/>
  <line x1="   200" y1="   110" x2="   175" y2="   110" style = "stroke: Black;"/>
  <line x1="   175" y1="   110" x2="   175" y2="    80" style = "stroke: Black;"/>
  <line x1="   175" y1="    80" x2="  2825" y2="    80" style = "stroke: Black;"/>
  <line x1="  2825" y1="    80" x2="  2825" y2="   270" style = "stroke: Black;"/>
  <line x1="  2825" y1="   270" x2="  2800" y2="   270" style = "stroke: Black;"/>
  <line x1="   200" y1="   350" x2="   175" y2="   350" style = "stroke: Black;"/>
  <line x1="   175" y1="   350" x2="   175" y2="   320" style = "stroke: Black;"/>
  <line x1="   175" y1="   320" x2="  2825" y2="   320" style = "stroke: Black;"/>
  <line x1="  2825" y1="   320" x2="  2825" y2="   510" style = "stroke: Black;"/>
  <line x1="  2825" y1="   510" x2="  2800" y2="   510" style = "stroke: Black;"/>
  <line x1="   200" y1="   590" x2="   175" y2="   590" style = "stroke: Black;"/>
  <line x1="   175" y1="   590" x2="   175" y2="   560" style = "stroke: Black;"/>
  <line x1="   175" y1="   560" x2="  2825" y2="   560" style = "stroke: Black;"/>
  <line x1="  2825" y1="   560" x2="  2825" y2="   750" style = "stroke: Black;"/>
  <line x1="  2825" y1="   750" x2="  2800" y2="   750" style = "stroke: Black;"/>
  <line x1="   200" y1="   830" x2="   175" y2="   830" style = "stroke: Black;"/>
  <line x1="   175" y1="   830" x2="   175" y2="   800" style = "stroke: Black;"/>
  <line x1="   175" y1="   800" x2="  3125" y2="   800" style = "stroke: Black;"/>
  <line x1="  3125" y1="   800" x2="  3125" y2="   990" style = "stroke: Black;"/>
  <line x1="  3125" y1="   990" x2="  3100" y2="   990" style = "stroke: Black;"/>
  <line x1="   200" y1="  1070" x2="   175" y2="  1070" style = "stroke: Black;"/>
  <line x1="   175" y1="  1070" x2="   175" y2="  1040" style = "stroke: Black;"/>
  <line x1="   175" y1="  1040" x2="  4025" y2="  1040" style = "stroke: Black;"/>
  <line x1="  4025" y1="  1040" x2="  4025" y2="  1910" style = "stroke: Black;"/>
  <line x1="  4025" y1="  1910" x2="  4000" y2="  1910" style = "stroke: Black;"/>
  <line x1="   200" y1="  1990" x2="   175" y2="  1990" style = "stroke: Black;"/>
  <line x1="   175" y1="  1990" x2="   175" y2="  1960" style = "stroke: Black;"/>
  <line x1="   175" y1="  1960" x2="  3125" y2="  1960" style = "stroke: Black;"/>
  <line x1="  3125" y1="  1960" x2="  3125" y2="  2190" style = "stroke: Black;"/>
  <line x1="  3125" y1="  2190" x2="  3100" y2="  2190" style = "stroke: Black;"/>
  <line x1="   200" y1="  2270" x2="   175" y2="  2270" style = "stroke: Black;"/>
  <line x1="   175" y1="  2270" x2="   175" y2="  2240" style = "stroke: Black;"/>
  <line x1="   175" y1="  2240" x2="  2675" y2="  2240" style = "stroke: Black;"/>
  <line x1="  2675" y1="  2240" x2="  2675" y2="  2350" style = "stroke: Black;"/>
  <line x1="  2675" y1="  2350" x2="  2650" y2="  2350" style = "stroke: Black;"/>
  <text x="   200" y="  2720">Unused Non-Parent Objects:</text>
  <text x="   220" y="  2740">OutdoorAir:Node</text>
  <text x="   220" y="  2760">HEATSYS1 LOOP SETPOINT MANAGER</text>
  <text x="   220" y="  2780">MYCONDENSERCONTROL</text>
  <text x="   220" y="  2800">VAV_5_COOLC_CONTROLLER</text>
  <text x="   220" y="  2820">VAV_5_HEATC_CONTROLLER</text>
  <text x="   220" y="  2840">VAV_1_COOLC_CONTROLLER</text>
  <text x="   220" y="  2860">VAV_1_HEATC_CONTROLLER</text>
  <text x="   220" y="  2880">VAV_2_COOLC_CONTROLLER</text>
  <text x="   220" y="  2900">VAV_2_HEATC_CONTROLLER</text>
  <text x="   220" y="  2920">VAV_3_COOLC_CONTROLLER</text>
  <text x="   220" y="  2940">VAV_3_HEATC_CONTROLLER</text>
  <text x="   220" y="  2960">VAV_5_OA_CONTROLLER</text>
  <text x="   220" y="  2980">VAV_1_OA_CONTROLLER</text>
  <text x="   220" y="  3000">VAV_2_OA_CONTROLLER</text>
  <text x="   220" y="  3020">VAV_3_OA_CONTROLLER</text>
  <text x="   200" y="  3060">
The following are not supported: objects related to controls, AirTerminal:SingleDuct:Uncontrolled, or ZoneHVAC:IdealLoadsAirSystem</text>
</g>
</svg>
